<?xml version="1.0" encoding="UTF-8"?>
<svg xmlns="http://www.w3.org/2000/svg" version="1.1" viewBox="0 0 387.7 481.2">
  <defs>
    <style>
      .cls-1 {
        fill: #fff;
      }
    </style>
  </defs>
  <!-- Generator: Adobe Illustrator 28.7.1, SVG Export Plug-In . SVG Version: 1.2.0 Build 142)  -->
  <g>
    <g id="b">
      <g id="c">
        <path class="cls-1" d="M9.6,205.5c-3.1,8.9-.3,15.9,6,21.9,9.1,8.8,20.4,13.7,32.2,17.6,29.9,10.2,61,13.9,92.4,15,41.3,1.4,82.3-1.4,122-14.2,10.2-3.3,20.2-8,29.2-13.8,17.7-11.6,17.4-26.5,0-38.6-5.4-3.8-11.5-6.7-18.5-10.7,3.9,1.2,6.6,1.7,9.2,2.8,10.5,4.6,21.3,8.6,31.3,14.1,11.6,6.4,19.2,16,17.1,30.6,0,.5,0,1,0,1.5,0,.3.2.6,0,.2,8.3-1.3,16.4-3.5,24.6-3.6,20.1-.3,32.5,12.5,32.5,32.5,0,11.2-3.1,21.7-7.7,31.8-11.8,25.9-30,46.2-54.2,61.2-1.5.9-3.1,1.7-4.7,2.5-.4-.5-.9-1-1.3-1.4,1.4-1,3-1.8,4.2-3,15.1-15,28.7-31.1,38.2-50.3,5.2-10.6,8.6-21.7,7.8-33.7-.8-13.4-10.7-21.1-24-18.4-10.2,2-17.6,9.5-19.6,20.2-6.4,34-18.6,65.7-39,93.8-23.6,32.5-53.6,56-93.5,65-31.1,7-60.9,2.7-89.4-11.2-.8-.4-1.6-1-2.2-1.4,9.6,1.8,19.1,4.3,28.8,5.4,37.1,4.2,70.3-6.4,99.7-28.8,38.2-29.1,60.7-68.3,71.8-114.5,1.6-6.8,2.7-13.7,4-20.6.4-2.1.5-4.2.7-7-46.6,20.9-95.6,25.6-145.2,25.2-49.7-.4-98.8-5-144.9-28.5,2.9,52.9,17.6,100.8,49.7,143.1-1.6-1.4-3.3-2.8-4.9-4.3-28.1-26.9-44.8-60-54.3-97.3C2.7,268.6.9,248.5,0,228.1c-.4-9.6,2.4-16.7,9.5-22.6Z"/>
        <path class="cls-1" d="M140.6,27.6c-4,13.8.8,25.2,10,34.8,10.3,10.7,21.3,20.6,32,30.9,12.3,11.9,23,25,29.5,41.1,6.9,17.3,7.8,34.7-.7,51.8-5.9,11.8-15.1,20-27.9,23.1-9.1,2.2-18.5,3.3-27.8,4.9,0-.4-.2-.9-.2-1.4,6.4-2.2,12.9-4.2,19.1-6.7,23.6-9.5,33.7-29.5,27.6-54.3-2.9-11.9-8.4-22.5-15.9-32-9.1-11.5-19.1-22.2-28.3-33.7-6.6-8.3-13.1-16.8-18.4-26-5.4-9.3-5.9-19.7-.9-29.7.5-1,1.2-1.9,1.9-2.9h0Z"/>
        <path class="cls-1" d="M38.1,468.5c23.7,2.1,47.3,5.1,71,6,51.9,2.2,103.6.3,154.1-13.5,8.6-2.3,16.7-6.4,25-9.9,2.2-1,4.2-2.7,6.1-4.3,7.4-6.5,7.4-13.4-.2-19.9-3.4-2.9-7.3-5-10.8-7.9,12,3.2,24,6.6,33.7,15.1,6.5,5.7,6.6,12.4,0,18-4.4,3.7-9.6,6.7-14.8,9-19.6,8.5-40.4,12.1-61.4,14.9-48.2,6.4-96.6,6.9-145,1.8-18-1.9-35.8-5.8-53.7-8.8-1.4-.2-2.7-.8-4-1.2v.7h0Z"/>
        <path class="cls-1" d="M125.2,1.3c-32.1,23.8-37.9,62.2-13.5,93.8,9.7,12.6,21.6,23.5,32.1,35.6,5.5,6.4,11,13.1,15.1,20.3,7,12.2,5.4,24.8-1.6,36.8.4-2.5,1-5.1,1.1-7.6.8-11-2-21-10.1-28.7-7.9-7.6-16.2-14.8-24.5-22-10.8-9.4-21.2-19.2-29-31.5-19-30.2-13.2-68.2,14-88.8,4.8-3.6,10.4-6.2,15.7-9.2.2.4.4.9.6,1.3h0Z"/>
      </g>
    </g>
  </g>
</svg>